<svg width="488" height="312" viewBox="0 0 488 312" fill="none" xmlns="http://www.w3.org/2000/svg">
<rect x="0.5" y="0.5" width="487" height="311" rx="11.5" fill="white" stroke="#EAEAEA"/>
<path d="M26 83.8555C26 81.6463 27.7909 79.8555 30 79.8555H48C50.2091 79.8555 52 81.6463 52 83.8555V83.8555C52 86.0646 50.2091 87.8555 48 87.8555H30C27.7909 87.8555 26 86.0646 26 83.8555V83.8555Z" fill="#3291FF"/>
<path d="M30 80.2662H48V79.4447H30V80.2662ZM48 87.4447H30V88.2662H48V87.4447ZM30 87.4447C28.0177 87.4447 26.4108 85.8377 26.4108 83.8555H25.5892C25.5892 86.2915 27.564 88.2662 30 88.2662V87.4447ZM51.5892 83.8555C51.5892 85.8377 49.9823 87.4447 48 87.4447V88.2662C50.436 88.2662 52.4108 86.2915 52.4108 83.8555H51.5892ZM48 80.2662C49.9823 80.2662 51.5892 81.8732 51.5892 83.8555H52.4108C52.4108 81.4195 50.436 79.4447 48 79.4447V80.2662ZM30 79.4447C27.564 79.4447 25.5892 81.4195 25.5892 83.8555H26.4108C26.4108 81.8732 28.0177 80.2662 30 80.2662V79.4447Z" fill="#EAEAEA"/>
<path d="M26 97.8555C26 95.6463 27.7909 93.8555 30 93.8555H42C44.2091 93.8555 46 95.6463 46 97.8555V97.8555C46 100.065 44.2091 101.855 42 101.855H30C27.7909 101.855 26 100.065 26 97.8555V97.8555Z" fill="#7928CA"/>
<path d="M30 94.2662H42V93.4447H30V94.2662ZM42 101.445H30V102.266H42V101.445ZM30 101.445C28.0177 101.445 26.4108 99.8377 26.4108 97.8555H25.5892C25.5892 100.291 27.564 102.266 30 102.266V101.445ZM45.5892 97.8555C45.5892 99.8377 43.9823 101.445 42 101.445V102.266C44.436 102.266 46.4108 100.291 46.4108 97.8555H45.5892ZM42 94.2662C43.9823 94.2662 45.5892 95.8732 45.5892 97.8555H46.4108C46.4108 95.4195 44.436 93.4447 42 93.4447V94.2662ZM30 93.4447C27.564 93.4447 25.5892 95.4195 25.5892 97.8555H26.4108C26.4108 95.8732 28.0177 94.2662 30 94.2662V93.4447Z" fill="#EAEAEA"/>
<path d="M52 97.8555C52 95.6463 53.7909 93.8555 56 93.8555H88C90.2091 93.8555 92 95.6463 92 97.8555V97.8555C92 100.065 90.2091 101.855 88 101.855H56C53.7909 101.855 52 100.065 52 97.8555V97.8555Z" fill="#F81CE5"/>
<path d="M56 94.2662H88V93.4447H56V94.2662ZM88 101.445H56V102.266H88V101.445ZM56 101.445C54.0177 101.445 52.4108 99.8377 52.4108 97.8555H51.5892C51.5892 100.291 53.564 102.266 56 102.266V101.445ZM91.5892 97.8555C91.5892 99.8377 89.9823 101.445 88 101.445V102.266C90.436 102.266 92.4108 100.291 92.4108 97.8555H91.5892ZM88 94.2662C89.9823 94.2662 91.5892 95.8732 91.5892 97.8555H92.4108C92.4108 95.4195 90.436 93.4447 88 93.4447V94.2662ZM56 93.4447C53.564 93.4447 51.5892 95.4195 51.5892 97.8555H52.4108C52.4108 95.8732 54.0177 94.2662 56 94.2662V93.4447Z" fill="#EAEAEA"/>
<path d="M98 97.8555C98 95.6463 99.7909 93.8555 102 93.8555H114C116.209 93.8555 118 95.6463 118 97.8555V97.8555C118 100.065 116.209 101.855 114 101.855H102C99.7909 101.855 98 100.065 98 97.8555V97.8555Z" fill="#F81CE5"/>
<path d="M102 94.2662H114V93.4447H102V94.2662ZM114 101.445H102V102.266H114V101.445ZM102 101.445C100.018 101.445 98.4108 99.8377 98.4108 97.8555H97.5892C97.5892 100.291 99.564 102.266 102 102.266V101.445ZM117.589 97.8555C117.589 99.8377 115.982 101.445 114 101.445V102.266C116.436 102.266 118.411 100.291 118.411 97.8555H117.589ZM114 94.2662C115.982 94.2662 117.589 95.8732 117.589 97.8555H118.411C118.411 95.4195 116.436 93.4447 114 93.4447V94.2662ZM102 93.4447C99.564 93.4447 97.5892 95.4195 97.5892 97.8555H98.4108C98.4108 95.8732 100.018 94.2662 102 94.2662V93.4447Z" fill="#EAEAEA"/>
<path d="M12 69.8555C12 67.6463 13.7909 65.8555 16 65.8555V65.8555C18.2091 65.8555 20 67.6463 20 69.8555V69.8555C20 72.0646 18.2091 73.8555 16 73.8555V73.8555C13.7909 73.8555 12 72.0646 12 69.8555V69.8555Z" fill="#EAEAEA"/>
<path d="M16 73.4447C14.0177 73.4447 12.4108 71.8377 12.4108 69.8555H11.5892C11.5892 72.2915 13.564 74.2662 16 74.2662V73.4447ZM19.5892 69.8555C19.5892 71.8377 17.9823 73.4447 16 73.4447V74.2662C18.436 74.2662 20.4108 72.2915 20.4108 69.8555H19.5892ZM16 66.2662C17.9823 66.2662 19.5892 67.8732 19.5892 69.8555H20.4108C20.4108 67.4195 18.436 65.4447 16 65.4447V66.2662ZM16 65.4447C13.564 65.4447 11.5892 67.4195 11.5892 69.8555H12.4108C12.4108 67.8732 14.0177 66.2662 16 66.2662V65.4447Z" fill="#EAEAEA"/>
<path d="M26 69.8555C26 67.6463 27.7909 65.8555 30 65.8555H62C64.2091 65.8555 66 67.6463 66 69.8555V69.8555C66 72.0646 64.2091 73.8555 62 73.8555H30C27.7909 73.8555 26 72.0646 26 69.8555V69.8555Z" fill="#3291FF"/>
<path d="M30 66.2662H62V65.4447H30V66.2662ZM62 73.4447H30V74.2662H62V73.4447ZM30 73.4447C28.0177 73.4447 26.4108 71.8377 26.4108 69.8555H25.5892C25.5892 72.2915 27.564 74.2662 30 74.2662V73.4447ZM65.5892 69.8555C65.5892 71.8377 63.9823 73.4447 62 73.4447V74.2662C64.436 74.2662 66.4108 72.2915 66.4108 69.8555H65.5892ZM62 66.2662C63.9823 66.2662 65.5892 67.8732 65.5892 69.8555H66.4108C66.4108 67.4195 64.436 65.4447 62 65.4447V66.2662ZM30 65.4447C27.564 65.4447 25.5892 67.4195 25.5892 69.8555H26.4108C26.4108 67.8732 28.0177 66.2662 30 66.2662V65.4447Z" fill="#EAEAEA"/>
<path d="M72 69.8555C72 67.6463 73.7909 65.8555 76 65.8555H88C90.2091 65.8555 92 67.6463 92 69.8555V69.8555C92 72.0646 90.2091 73.8555 88 73.8555H76C73.7909 73.8555 72 72.0646 72 69.8555V69.8555Z" fill="#F81CE5"/>
<path d="M76 66.2662H88V65.4447H76V66.2662ZM88 73.4447H76V74.2662H88V73.4447ZM76 73.4447C74.0177 73.4447 72.4108 71.8377 72.4108 69.8555H71.5892C71.5892 72.2915 73.564 74.2662 76 74.2662V73.4447ZM91.5892 69.8555C91.5892 71.8377 89.9823 73.4447 88 73.4447V74.2662C90.436 74.2662 92.4108 72.2915 92.4108 69.8555H91.5892ZM88 66.2662C89.9823 66.2662 91.5892 67.8732 91.5892 69.8555H92.4108C92.4108 67.4195 90.436 65.4447 88 65.4447V66.2662ZM76 65.4447C73.564 65.4447 71.5892 67.4195 71.5892 69.8555H72.4108C72.4108 67.8732 74.0177 66.2662 76 66.2662V65.4447Z" fill="#EAEAEA"/>
<path d="M12 83.8555C12 81.6463 13.7909 79.8555 16 79.8555V79.8555C18.2091 79.8555 20 81.6463 20 83.8555V83.8555C20 86.0646 18.2091 87.8555 16 87.8555V87.8555C13.7909 87.8555 12 86.0646 12 83.8555V83.8555Z" fill="#EAEAEA"/>
<path d="M16 87.4447C14.0177 87.4447 12.4108 85.8377 12.4108 83.8555H11.5892C11.5892 86.2915 13.564 88.2662 16 88.2662V87.4447ZM19.5892 83.8555C19.5892 85.8377 17.9823 87.4447 16 87.4447V88.2662C18.436 88.2662 20.4108 86.2915 20.4108 83.8555H19.5892ZM16 80.2662C17.9823 80.2662 19.5892 81.8732 19.5892 83.8555H20.4108C20.4108 81.4195 18.436 79.4447 16 79.4447V80.2662ZM16 79.4447C13.564 79.4447 11.5892 81.4195 11.5892 83.8555H12.4108C12.4108 81.8732 14.0177 80.2662 16 80.2662V79.4447Z" fill="#EAEAEA"/>
<path d="M12 97.8555C12 95.6463 13.7909 93.8555 16 93.8555V93.8555C18.2091 93.8555 20 95.6463 20 97.8555V97.8555C20 100.065 18.2091 101.855 16 101.855V101.855C13.7909 101.855 12 100.065 12 97.8555V97.8555Z" fill="#EAEAEA"/>
<path d="M16 101.445C14.0177 101.445 12.4108 99.8377 12.4108 97.8555H11.5892C11.5892 100.291 13.564 102.266 16 102.266V101.445ZM19.5892 97.8555C19.5892 99.8377 17.9823 101.445 16 101.445V102.266C18.436 102.266 20.4108 100.291 20.4108 97.8555H19.5892ZM16 94.2662C17.9823 94.2662 19.5892 95.8732 19.5892 97.8555H20.4108C20.4108 95.4195 18.436 93.4447 16 93.4447V94.2662ZM16 93.4447C13.564 93.4447 11.5892 95.4195 11.5892 97.8555H12.4108C12.4108 95.8732 14.0177 94.2662 16 94.2662V93.4447Z" fill="#EAEAEA"/>
<path d="M12 111.855C12 109.646 13.7909 107.855 16 107.855V107.855C18.2091 107.855 20 109.646 20 111.855V111.855C20 114.065 18.2091 115.855 16 115.855V115.855C13.7909 115.855 12 114.065 12 111.855V111.855Z" fill="#EAEAEA"/>
<path d="M16 115.445C14.0177 115.445 12.4108 113.838 12.4108 111.855H11.5892C11.5892 114.291 13.564 116.266 16 116.266V115.445ZM19.5892 111.855C19.5892 113.838 17.9823 115.445 16 115.445V116.266C18.436 116.266 20.4108 114.291 20.4108 111.855H19.5892ZM16 108.266C17.9823 108.266 19.5892 109.873 19.5892 111.855H20.4108C20.4108 109.419 18.436 107.445 16 107.445V108.266ZM16 107.445C13.564 107.445 11.5892 109.419 11.5892 111.855H12.4108C12.4108 109.873 14.0177 108.266 16 108.266V107.445Z" fill="#EAEAEA"/>
<path d="M12 125.855C12 123.646 13.7909 121.855 16 121.855V121.855C18.2091 121.855 20 123.646 20 125.855V125.855C20 128.065 18.2091 129.855 16 129.855V129.855C13.7909 129.855 12 128.065 12 125.855V125.855Z" fill="#888888"/>
<path d="M16 129.445C14.0177 129.445 12.4108 127.838 12.4108 125.855H11.5892C11.5892 128.291 13.564 130.266 16 130.266V129.445ZM19.5892 125.855C19.5892 127.838 17.9823 129.445 16 129.445V130.266C18.436 130.266 20.4108 128.291 20.4108 125.855H19.5892ZM16 122.266C17.9823 122.266 19.5892 123.873 19.5892 125.855H20.4108C20.4108 123.419 18.436 121.445 16 121.445V122.266ZM16 121.445C13.564 121.445 11.5892 123.419 11.5892 125.855H12.4108C12.4108 123.873 14.0177 122.266 16 122.266V121.445Z" fill="#EAEAEA"/>
<path d="M12 139.855C12 137.646 13.7909 135.855 16 135.855V135.855C18.2091 135.855 20 137.646 20 139.855V139.855C20 142.065 18.2091 143.855 16 143.855V143.855C13.7909 143.855 12 142.065 12 139.855V139.855Z" fill="#EAEAEA"/>
<path d="M16 143.445C14.0177 143.445 12.4108 141.838 12.4108 139.855H11.5892C11.5892 142.291 13.564 144.266 16 144.266V143.445ZM19.5892 139.855C19.5892 141.838 17.9823 143.445 16 143.445V144.266C18.436 144.266 20.4108 142.291 20.4108 139.855H19.5892ZM16 136.266C17.9823 136.266 19.5892 137.873 19.5892 139.855H20.4108C20.4108 137.419 18.436 135.445 16 135.445V136.266ZM16 135.445C13.564 135.445 11.5892 137.419 11.5892 139.855H12.4108C12.4108 137.873 14.0177 136.266 16 136.266V135.445Z" fill="#EAEAEA"/>
<path d="M12 153.855C12 151.646 13.7909 149.855 16 149.855V149.855C18.2091 149.855 20 151.646 20 153.855V153.855C20 156.065 18.2091 157.855 16 157.855V157.855C13.7909 157.855 12 156.065 12 153.855V153.855Z" fill="#EAEAEA"/>
<path d="M16 157.445C14.0177 157.445 12.4108 155.838 12.4108 153.855H11.5892C11.5892 156.291 13.564 158.266 16 158.266V157.445ZM19.5892 153.855C19.5892 155.838 17.9823 157.445 16 157.445V158.266C18.436 158.266 20.4108 156.291 20.4108 153.855H19.5892ZM16 150.266C17.9823 150.266 19.5892 151.873 19.5892 153.855H20.4108C20.4108 151.419 18.436 149.445 16 149.445V150.266ZM16 149.445C13.564 149.445 11.5892 151.419 11.5892 153.855H12.4108C12.4108 151.873 14.0177 150.266 16 150.266V149.445Z" fill="#EAEAEA"/>
<path d="M12 167.855C12 165.646 13.7909 163.855 16 163.855V163.855C18.2091 163.855 20 165.646 20 167.855V167.855C20 170.065 18.2091 171.855 16 171.855V171.855C13.7909 171.855 12 170.065 12 167.855V167.855Z" fill="#EAEAEA"/>
<path d="M16 171.445C14.0177 171.445 12.4108 169.838 12.4108 167.855H11.5892C11.5892 170.291 13.564 172.266 16 172.266V171.445ZM19.5892 167.855C19.5892 169.838 17.9823 171.445 16 171.445V172.266C18.436 172.266 20.4108 170.291 20.4108 167.855H19.5892ZM16 164.266C17.9823 164.266 19.5892 165.873 19.5892 167.855H20.4108C20.4108 165.419 18.436 163.445 16 163.445V164.266ZM16 163.445C13.564 163.445 11.5892 165.419 11.5892 167.855H12.4108C12.4108 165.873 14.0177 164.266 16 164.266V163.445Z" fill="#EAEAEA"/>
<path d="M26 111.855C26 109.646 27.7909 107.855 30 107.855H62C64.2091 107.855 66 109.646 66 111.855V111.855C66 114.065 64.2091 115.855 62 115.855H30C27.7909 115.855 26 114.065 26 111.855V111.855Z" fill="#3291FF"/>
<path d="M30 108.266H62V107.445H30V108.266ZM62 115.445H30V116.266H62V115.445ZM30 115.445C28.0177 115.445 26.4108 113.838 26.4108 111.855H25.5892C25.5892 114.291 27.564 116.266 30 116.266V115.445ZM65.5892 111.855C65.5892 113.838 63.9823 115.445 62 115.445V116.266C64.436 116.266 66.4108 114.291 66.4108 111.855H65.5892ZM62 108.266C63.9823 108.266 65.5892 109.873 65.5892 111.855H66.4108C66.4108 109.419 64.436 107.445 62 107.445V108.266ZM30 107.445C27.564 107.445 25.5892 109.419 25.5892 111.855H26.4108C26.4108 109.873 28.0177 108.266 30 108.266V107.445Z" fill="#EAEAEA"/>
<path d="M26 125.855C26 123.646 27.7909 121.855 30 121.855H74C76.2091 121.855 78 123.646 78 125.855V125.855C78 128.065 76.2091 129.855 74 129.855H30C27.7909 129.855 26 128.065 26 125.855V125.855Z" fill="#3291FF"/>
<path d="M30 122.266H74V121.445H30V122.266ZM74 129.445H30V130.266H74V129.445ZM30 129.445C28.0177 129.445 26.4108 127.838 26.4108 125.855H25.5892C25.5892 128.291 27.564 130.266 30 130.266V129.445ZM77.5892 125.855C77.5892 127.838 75.9823 129.445 74 129.445V130.266C76.436 130.266 78.4108 128.291 78.4108 125.855H77.5892ZM74 122.266C75.9823 122.266 77.5892 123.873 77.5892 125.855H78.4108C78.4108 123.419 76.436 121.445 74 121.445V122.266ZM30 121.445C27.564 121.445 25.5892 123.419 25.5892 125.855H26.4108C26.4108 123.873 28.0177 122.266 30 122.266V121.445Z" fill="#EAEAEA"/>
<path d="M26 139.855C26 137.646 27.7909 135.855 30 135.855H48C50.2091 135.855 52 137.646 52 139.855V139.855C52 142.065 50.2091 143.855 48 143.855H30C27.7909 143.855 26 142.065 26 139.855V139.855Z" fill="#7928CA"/>
<path d="M30 136.266H48V135.445H30V136.266ZM48 143.445H30V144.266H48V143.445ZM30 143.445C28.0177 143.445 26.4108 141.838 26.4108 139.855H25.5892C25.5892 142.291 27.564 144.266 30 144.266V143.445ZM51.5892 139.855C51.5892 141.838 49.9823 143.445 48 143.445V144.266C50.436 144.266 52.4108 142.291 52.4108 139.855H51.5892ZM48 136.266C49.9823 136.266 51.5892 137.873 51.5892 139.855H52.4108C52.4108 137.419 50.436 135.445 48 135.445V136.266ZM30 135.445C27.564 135.445 25.5892 137.419 25.5892 139.855H26.4108C26.4108 137.873 28.0177 136.266 30 136.266V135.445Z" fill="#EAEAEA"/>
<path d="M26 153.855C26 151.646 27.7909 149.855 30 149.855H42C44.2091 149.855 46 151.646 46 153.855V153.855C46 156.065 44.2091 157.855 42 157.855H30C27.7909 157.855 26 156.065 26 153.855V153.855Z" fill="#3291FF"/>
<path d="M30 150.266H42V149.445H30V150.266ZM42 157.445H30V158.266H42V157.445ZM30 157.445C28.0177 157.445 26.4108 155.838 26.4108 153.855H25.5892C25.5892 156.291 27.564 158.266 30 158.266V157.445ZM45.5892 153.855C45.5892 155.838 43.9823 157.445 42 157.445V158.266C44.436 158.266 46.4108 156.291 46.4108 153.855H45.5892ZM42 150.266C43.9823 150.266 45.5892 151.873 45.5892 153.855H46.4108C46.4108 151.419 44.436 149.445 42 149.445V150.266ZM30 149.445C27.564 149.445 25.5892 151.419 25.5892 153.855H26.4108C26.4108 151.873 28.0177 150.266 30 150.266V149.445Z" fill="#EAEAEA"/>
<path d="M52 153.855C52 151.646 53.7909 149.855 56 149.855H88C90.2091 149.855 92 151.646 92 153.855V153.855C92 156.065 90.2091 157.855 88 157.855H56C53.7909 157.855 52 156.065 52 153.855V153.855Z" fill="#3291FF"/>
<path d="M56 150.266H88V149.445H56V150.266ZM88 157.445H56V158.266H88V157.445ZM56 157.445C54.0177 157.445 52.4108 155.838 52.4108 153.855H51.5892C51.5892 156.291 53.564 158.266 56 158.266V157.445ZM91.5892 153.855C91.5892 155.838 89.9823 157.445 88 157.445V158.266C90.436 158.266 92.4108 156.291 92.4108 153.855H91.5892ZM88 150.266C89.9823 150.266 91.5892 151.873 91.5892 153.855H92.4108C92.4108 151.419 90.436 149.445 88 149.445V150.266ZM56 149.445C53.564 149.445 51.5892 151.419 51.5892 153.855H52.4108C52.4108 151.873 54.0177 150.266 56 150.266V149.445Z" fill="#EAEAEA"/>
<path d="M58 139.855C58 137.646 59.7909 135.855 62 135.855H74C76.2091 135.855 78 137.646 78 139.855V139.855C78 142.065 76.2091 143.855 74 143.855H62C59.7909 143.855 58 142.065 58 139.855V139.855Z" fill="#7928CA"/>
<path d="M62 136.266H74V135.445H62V136.266ZM74 143.445H62V144.266H74V143.445ZM62 143.445C60.0177 143.445 58.4108 141.838 58.4108 139.855H57.5892C57.5892 142.291 59.564 144.266 62 144.266V143.445ZM77.5892 139.855C77.5892 141.838 75.9823 143.445 74 143.445V144.266C76.436 144.266 78.4108 142.291 78.4108 139.855H77.5892ZM74 136.266C75.9823 136.266 77.5892 137.873 77.5892 139.855H78.4108C78.4108 137.419 76.436 135.445 74 135.445V136.266ZM62 135.445C59.564 135.445 57.5892 137.419 57.5892 139.855H58.4108C58.4108 137.873 60.0177 136.266 62 136.266V135.445Z" fill="#EAEAEA"/>
<path d="M26 167.855C26 165.646 27.7909 163.855 30 163.855H62C64.2091 163.855 66 165.646 66 167.855V167.855C66 170.065 64.2091 171.855 62 171.855H30C27.7909 171.855 26 170.065 26 167.855V167.855Z" fill="#7928CA"/>
<path d="M30 164.266H62V163.445H30V164.266ZM62 171.445H30V172.266H62V171.445ZM30 171.445C28.0177 171.445 26.4108 169.838 26.4108 167.855H25.5892C25.5892 170.291 27.564 172.266 30 172.266V171.445ZM65.5892 167.855C65.5892 169.838 63.9823 171.445 62 171.445V172.266C64.436 172.266 66.4108 170.291 66.4108 167.855H65.5892ZM62 164.266C63.9823 164.266 65.5892 165.873 65.5892 167.855H66.4108C66.4108 165.419 64.436 163.445 62 163.445V164.266ZM30 163.445C27.564 163.445 25.5892 165.419 25.5892 167.855H26.4108C26.4108 165.873 28.0177 164.266 30 164.266V163.445Z" fill="#EAEAEA"/>
<path d="M72 167.855C72 165.646 73.7909 163.855 76 163.855H94C96.2091 163.855 98 165.646 98 167.855V167.855C98 170.065 96.2091 171.855 94 171.855H76C73.7909 171.855 72 170.065 72 167.855V167.855Z" fill="#3291FF"/>
<path d="M76 164.266H94V163.445H76V164.266ZM94 171.445H76V172.266H94V171.445ZM76 171.445C74.0177 171.445 72.4108 169.838 72.4108 167.855H71.5892C71.5892 170.291 73.564 172.266 76 172.266V171.445ZM97.5892 167.855C97.5892 169.838 95.9823 171.445 94 171.445V172.266C96.436 172.266 98.4108 170.291 98.4108 167.855H97.5892ZM94 164.266C95.9823 164.266 97.5892 165.873 97.5892 167.855H98.4108C98.4108 165.419 96.436 163.445 94 163.445V164.266ZM76 163.445C73.564 163.445 71.5892 165.419 71.5892 167.855H72.4108C72.4108 165.873 74.0177 164.266 76 164.266V163.445Z" fill="#EAEAEA"/>
<path d="M58 83.8555C58 81.6463 59.7909 79.8555 62 79.8555H106C108.209 79.8555 110 81.6463 110 83.8555V83.8555C110 86.0646 108.209 87.8555 106 87.8555H62C59.7909 87.8555 58 86.0646 58 83.8555V83.8555Z" fill="#F81CE5"/>
<path d="M62 80.2662H106V79.4447H62V80.2662ZM106 87.4447H62V88.2662H106V87.4447ZM62 87.4447C60.0177 87.4447 58.4108 85.8377 58.4108 83.8555H57.5892C57.5892 86.2915 59.564 88.2662 62 88.2662V87.4447ZM109.589 83.8555C109.589 85.8377 107.982 87.4447 106 87.4447V88.2662C108.436 88.2662 110.411 86.2915 110.411 83.8555H109.589ZM106 80.2662C107.982 80.2662 109.589 81.8732 109.589 83.8555H110.411C110.411 81.4195 108.436 79.4447 106 79.4447V80.2662ZM62 79.4447C59.564 79.4447 57.5892 81.4195 57.5892 83.8555H58.4108C58.4108 81.8732 60.0177 80.2662 62 80.2662V79.4447Z" fill="#EAEAEA"/>
<path d="M72 111.855C72 109.646 73.7909 107.855 76 107.855H94C96.2091 107.855 98 109.646 98 111.855V111.855C98 114.065 96.2091 115.855 94 115.855H76C73.7909 115.855 72 114.065 72 111.855V111.855Z" fill="#3291FF"/>
<path d="M76 108.266H94V107.445H76V108.266ZM94 115.445H76V116.266H94V115.445ZM76 115.445C74.0177 115.445 72.4108 113.838 72.4108 111.855H71.5892C71.5892 114.291 73.564 116.266 76 116.266V115.445ZM97.5892 111.855C97.5892 113.838 95.9823 115.445 94 115.445V116.266C96.436 116.266 98.4108 114.291 98.4108 111.855H97.5892ZM94 108.266C95.9823 108.266 97.5892 109.873 97.5892 111.855H98.4108C98.4108 109.419 96.436 107.445 94 107.445V108.266ZM76 107.445C73.564 107.445 71.5892 109.419 71.5892 111.855H72.4108C72.4108 109.873 74.0177 108.266 76 108.266V107.445Z" fill="#EAEAEA"/>
<path d="M12.1445 48C12.1445 45.7909 13.9354 44 16.1445 44H60.1445C62.3537 44 64.1445 45.7909 64.1445 48V48C64.1445 50.2091 62.3537 52 60.1445 52H16.1445C13.9354 52 12.1445 50.2091 12.1445 48V48Z" fill="#888888"/>
<path d="M16.1445 44.4108H60.1445V43.5892H16.1445V44.4108ZM60.1445 51.5892H16.1445V52.4108H60.1445V51.5892ZM16.1445 51.5892C14.1623 51.5892 12.5553 49.9823 12.5553 48H11.7338C11.7338 50.436 13.7085 52.4108 16.1445 52.4108V51.5892ZM63.7338 48C63.7338 49.9823 62.1268 51.5892 60.1445 51.5892V52.4108C62.5805 52.4108 64.5553 50.436 64.5553 48H63.7338ZM60.1445 44.4108C62.1268 44.4108 63.7338 46.0177 63.7338 48H64.5553C64.5553 45.564 62.5805 43.5892 60.1445 43.5892V44.4108ZM16.1445 43.5892C13.7085 43.5892 11.7338 45.564 11.7338 48H12.5553C12.5553 46.0177 14.1623 44.4108 16.1445 44.4108V43.5892Z" fill="#EAEAEA"/>
<path d="M0.5 12C0.5 5.64873 5.64873 0.5 12 0.5H476C482.351 0.5 487.5 5.64873 487.5 12V27.5H0.5V12Z" fill="white" stroke="#EAEAEA"/>
<path d="M113 10C113 7.79086 114.791 6 117 6H371C373.209 6 375 7.79086 375 10V18.431C375 20.6401 373.209 22.431 371 22.431H117C114.791 22.431 113 20.6401 113 18.431V10Z" fill="#EAEAEA"/>
<path d="M117 6.41077H371V5.58923H117V6.41077ZM374.589 10V18.431H375.411V10H374.589ZM371 22.0202H117V22.8418H371V22.0202ZM113.411 18.431V10H112.589V18.431H113.411ZM117 22.0202C115.018 22.0202 113.411 20.4133 113.411 18.431H112.589C112.589 20.867 114.564 22.8418 117 22.8418V22.0202ZM374.589 18.431C374.589 20.4132 372.982 22.0202 371 22.0202V22.8418C373.436 22.8418 375.411 20.867 375.411 18.431H374.589ZM371 6.41077C372.982 6.41077 374.589 8.01773 374.589 10H375.411C375.411 7.564 373.436 5.58923 371 5.58923V6.41077ZM117 5.58923C114.564 5.58923 112.589 7.564 112.589 10H113.411C113.411 8.01773 115.018 6.41077 117 6.41077V5.58923Z" fill="#EAEAEA"/>
<path d="M168.5 27.5H487.5V300C487.5 306.351 482.351 311.5 476 311.5H168.5V27.5Z" fill="#FAFAFA" stroke="#EAEAEA"/>
<path d="M293 126C293 121.582 296.582 118 301 118H457C461.418 118 465 121.582 465 126V150C465 154.418 461.418 158 457 158H301C296.582 158 293 154.418 293 150V126Z" fill="#EAEAEA"/>
<path d="M293 200C293 195.582 296.582 192 301 192H457C461.418 192 465 195.582 465 200V224C465 228.418 461.418 232 457 232H301C296.582 232 293 228.418 293 224V200Z" fill="#EAEAEA"/>
<path d="M293 104C293 101.791 294.791 100 297 100H371C373.209 100 375 101.791 375 104V104C375 106.209 373.209 108 371 108H297C294.791 108 293 106.209 293 104V104Z" fill="#666666"/>
<path d="M293 178C293 175.791 294.791 174 297 174H371C373.209 174 375 175.791 375 178V178C375 180.209 373.209 182 371 182H297C294.791 182 293 180.209 293 178V178Z" fill="#666666"/>
<rect x="293.205" y="244.205" width="71.5892" height="15.5892" rx="7.79461" fill="#EAEAEA"/>
<path d="M297 252C297 249.791 298.791 248 301 248H357C359.209 248 361 249.791 361 252V252C361 254.209 359.209 256 357 256H301C298.791 256 297 254.209 297 252V252Z" fill="#666666"/>
<rect x="293.205" y="244.205" width="71.5892" height="15.5892" rx="7.79461" stroke="#EAEAEA" stroke-width="0.410774"/>
<path d="M19.75 14C19.75 16.0711 18.0711 17.75 16 17.75C13.9289 17.75 12.25 16.0711 12.25 14C12.25 11.9289 13.9289 10.25 16 10.25C18.0711 10.25 19.75 11.9289 19.75 14Z" fill="#FF6059" stroke="#E14640" stroke-width="0.5"/>
<path d="M31.75 14C31.75 16.0711 30.0711 17.75 28 17.75C25.9289 17.75 24.25 16.0711 24.25 14C24.25 11.9289 25.9289 10.25 28 10.25C30.0711 10.25 31.75 11.9289 31.75 14Z" fill="#FFBD2E" stroke="#DFA023" stroke-width="0.5"/>
<path d="M43.75 14C43.75 16.0711 42.0711 17.75 40 17.75C37.9289 17.75 36.25 16.0711 36.25 14C36.25 11.9289 37.9289 10.25 40 10.25C42.0711 10.25 43.75 11.9289 43.75 14Z" fill="#28CA42" stroke="#1DAC2C" stroke-width="0.5"/>
<path d="M412 63C412 60.7909 413.791 59 416 59H460C462.209 59 464 60.7909 464 63V63C464 65.2091 462.209 67 460 67H416C413.791 67 412 65.2091 412 63V63Z" fill="#888888"/>
<path d="M416 59.4108H460V58.5892H416V59.4108ZM460 66.5892H416V67.4108H460V66.5892ZM416 66.5892C414.018 66.5892 412.411 64.9823 412.411 63H411.589C411.589 65.436 413.564 67.4108 416 67.4108V66.5892ZM463.589 63C463.589 64.9823 461.982 66.5892 460 66.5892V67.4108C462.436 67.4108 464.411 65.436 464.411 63H463.589ZM460 59.4108C461.982 59.4108 463.589 61.0177 463.589 63H464.411C464.411 60.564 462.436 58.5892 460 58.5892V59.4108ZM416 58.5892C413.564 58.5892 411.589 60.564 411.589 63H412.411C412.411 61.0177 414.018 59.4108 416 59.4108V58.5892Z" fill="#EAEAEA"/>
<path d="M348 63C348 60.7909 349.791 59 352 59H396C398.209 59 400 60.7909 400 63V63C400 65.2091 398.209 67 396 67H352C349.791 67 348 65.2091 348 63V63Z" fill="#888888"/>
<path d="M352 59.4108H396V58.5892H352V59.4108ZM396 66.5892H352V67.4108H396V66.5892ZM352 66.5892C350.018 66.5892 348.411 64.9823 348.411 63H347.589C347.589 65.436 349.564 67.4108 352 67.4108V66.5892ZM399.589 63C399.589 64.9823 397.982 66.5892 396 66.5892V67.4108C398.436 67.4108 400.411 65.436 400.411 63H399.589ZM396 59.4108C397.982 59.4108 399.589 61.0177 399.589 63H400.411C400.411 60.564 398.436 58.5892 396 58.5892V59.4108ZM352 58.5892C349.564 58.5892 347.589 60.564 347.589 63H348.411C348.411 61.0177 350.018 59.4108 352 59.4108V58.5892Z" fill="#EAEAEA"/>
<path d="M284 63C284 60.7909 285.791 59 288 59H332C334.209 59 336 60.7909 336 63V63C336 65.2091 334.209 67 332 67H288C285.791 67 284 65.2091 284 63V63Z" fill="#3291FF"/>
<path d="M288 59.4108H332V58.5892H288V59.4108ZM332 66.5892H288V67.4108H332V66.5892ZM288 66.5892C286.018 66.5892 284.411 64.9823 284.411 63H283.589C283.589 65.436 285.564 67.4108 288 67.4108V66.5892ZM335.589 63C335.589 64.9823 333.982 66.5892 332 66.5892V67.4108C334.436 67.4108 336.411 65.436 336.411 63H335.589ZM332 59.4108C333.982 59.4108 335.589 61.0177 335.589 63H336.411C336.411 60.564 334.436 58.5892 332 58.5892V59.4108ZM288 58.5892C285.564 58.5892 283.589 60.564 283.589 63H284.411C284.411 61.0177 286.018 59.4108 288 59.4108V58.5892Z" fill="#EAEAEA"/>
<path d="M198.814 63C198.814 55.8203 204.635 50 211.814 50V50C218.994 50 224.814 55.8203 224.814 63V63C224.814 70.1797 218.994 76 211.814 76V76C204.635 76 198.814 70.1797 198.814 63V63Z" fill="#888888"/>
<path d="M211.814 75.5892C204.862 75.5892 199.225 69.9528 199.225 63H198.404C198.404 70.4066 204.408 76.4108 211.814 76.4108V75.5892ZM224.404 63C224.404 69.9528 218.767 75.5892 211.814 75.5892V76.4108C219.221 76.4108 225.225 70.4066 225.225 63H224.404ZM211.814 50.4108C218.767 50.4108 224.404 56.0472 224.404 63H225.225C225.225 55.5934 219.221 49.5892 211.814 49.5892V50.4108ZM211.814 49.5892C204.408 49.5892 198.404 55.5934 198.404 63H199.225C199.225 56.0472 204.862 50.4108 211.814 50.4108V49.5892Z" fill="#EAEAEA"/>
<path d="M199 104C199 101.791 200.791 100 203 100H235C237.209 100 239 101.791 239 104V104C239 106.209 237.209 108 235 108H203C200.791 108 199 106.209 199 104V104Z" fill="#EAEAEA"/>
<path d="M203 100.411H235V99.5892H203V100.411ZM235 107.589H203V108.411H235V107.589ZM203 107.589C201.018 107.589 199.411 105.982 199.411 104H198.589C198.589 106.436 200.564 108.411 203 108.411V107.589ZM238.589 104C238.589 105.982 236.982 107.589 235 107.589V108.411C237.436 108.411 239.411 106.436 239.411 104H238.589ZM235 100.411C236.982 100.411 238.589 102.018 238.589 104H239.411C239.411 101.564 237.436 99.5892 235 99.5892V100.411ZM203 99.5892C200.564 99.5892 198.589 101.564 198.589 104H199.411C199.411 102.018 201.018 100.411 203 100.411V99.5892Z" fill="#EAEAEA"/>
<path d="M199 118C199 115.791 200.791 114 203 114H221C223.209 114 225 115.791 225 118V118C225 120.209 223.209 122 221 122H203C200.791 122 199 120.209 199 118V118Z" fill="#EAEAEA"/>
<path d="M203 114.411H221V113.589H203V114.411ZM221 121.589H203V122.411H221V121.589ZM203 121.589C201.018 121.589 199.411 119.982 199.411 118H198.589C198.589 120.436 200.564 122.411 203 122.411V121.589ZM224.589 118C224.589 119.982 222.982 121.589 221 121.589V122.411C223.436 122.411 225.411 120.436 225.411 118H224.589ZM221 114.411C222.982 114.411 224.589 116.018 224.589 118H225.411C225.411 115.564 223.436 113.589 221 113.589V114.411ZM203 113.589C200.564 113.589 198.589 115.564 198.589 118H199.411C199.411 116.018 201.018 114.411 203 114.411V113.589Z" fill="#EAEAEA"/>
<path d="M199 132C199 129.791 200.791 128 203 128H215C217.209 128 219 129.791 219 132V132C219 134.209 217.209 136 215 136H203C200.791 136 199 134.209 199 132V132Z" fill="#EAEAEA"/>
<path d="M203 128.411H215V127.589H203V128.411ZM215 135.589H203V136.411H215V135.589ZM203 135.589C201.018 135.589 199.411 133.982 199.411 132H198.589C198.589 134.436 200.564 136.411 203 136.411V135.589ZM218.589 132C218.589 133.982 216.982 135.589 215 135.589V136.411C217.436 136.411 219.411 134.436 219.411 132H218.589ZM215 128.411C216.982 128.411 218.589 130.018 218.589 132H219.411C219.411 129.564 217.436 127.589 215 127.589V128.411ZM203 127.589C200.564 127.589 198.589 129.564 198.589 132H199.411C199.411 130.018 201.018 128.411 203 128.411V127.589Z" fill="#EAEAEA"/>
<path d="M225 132C225 129.791 226.791 128 229 128H261C263.209 128 265 129.791 265 132V132C265 134.209 263.209 136 261 136H229C226.791 136 225 134.209 225 132V132Z" fill="#EAEAEA"/>
<path d="M229 128.411H261V127.589H229V128.411ZM261 135.589H229V136.411H261V135.589ZM229 135.589C227.018 135.589 225.411 133.982 225.411 132H224.589C224.589 134.436 226.564 136.411 229 136.411V135.589ZM264.589 132C264.589 133.982 262.982 135.589 261 135.589V136.411C263.436 136.411 265.411 134.436 265.411 132H264.589ZM261 128.411C262.982 128.411 264.589 130.018 264.589 132H265.411C265.411 129.564 263.436 127.589 261 127.589V128.411ZM229 127.589C226.564 127.589 224.589 129.564 224.589 132H225.411C225.411 130.018 227.018 128.411 229 128.411V127.589Z" fill="#EAEAEA"/>
<path d="M231 118C231 115.791 232.791 114 235 114H247C249.209 114 251 115.791 251 118V118C251 120.209 249.209 122 247 122H235C232.791 122 231 120.209 231 118V118Z" fill="#EAEAEA"/>
<path d="M235 114.411H247V113.589H235V114.411ZM247 121.589H235V122.411H247V121.589ZM235 121.589C233.018 121.589 231.411 119.982 231.411 118H230.589C230.589 120.436 232.564 122.411 235 122.411V121.589ZM250.589 118C250.589 119.982 248.982 121.589 247 121.589V122.411C249.436 122.411 251.411 120.436 251.411 118H250.589ZM247 114.411C248.982 114.411 250.589 116.018 250.589 118H251.411C251.411 115.564 249.436 113.589 247 113.589V114.411ZM235 113.589C232.564 113.589 230.589 115.564 230.589 118H231.411C231.411 116.018 233.018 114.411 235 114.411V113.589Z" fill="#EAEAEA"/>
<path d="M199 146C199 143.791 200.791 142 203 142H235C237.209 142 239 143.791 239 146V146C239 148.209 237.209 150 235 150H203C200.791 150 199 148.209 199 146V146Z" fill="#EAEAEA"/>
<path d="M203 142.411H235V141.589H203V142.411ZM235 149.589H203V150.411H235V149.589ZM203 149.589C201.018 149.589 199.411 147.982 199.411 146H198.589C198.589 148.436 200.564 150.411 203 150.411V149.589ZM238.589 146C238.589 147.982 236.982 149.589 235 149.589V150.411C237.436 150.411 239.411 148.436 239.411 146H238.589ZM235 142.411C236.982 142.411 238.589 144.018 238.589 146H239.411C239.411 143.564 237.436 141.589 235 141.589V142.411ZM203 141.589C200.564 141.589 198.589 143.564 198.589 146H199.411C199.411 144.018 201.018 142.411 203 142.411V141.589Z" fill="#EAEAEA"/>
<path d="M199 160C199 157.791 200.791 156 203 156H247C249.209 156 251 157.791 251 160V160C251 162.209 249.209 164 247 164H203C200.791 164 199 162.209 199 160V160Z" fill="#EAEAEA"/>
<path d="M203 156.411H247V155.589H203V156.411ZM247 163.589H203V164.411H247V163.589ZM203 163.589C201.018 163.589 199.411 161.982 199.411 160H198.589C198.589 162.436 200.564 164.411 203 164.411V163.589ZM250.589 160C250.589 161.982 248.982 163.589 247 163.589V164.411C249.436 164.411 251.411 162.436 251.411 160H250.589ZM247 156.411C248.982 156.411 250.589 158.018 250.589 160H251.411C251.411 157.564 249.436 155.589 247 155.589V156.411ZM203 155.589C200.564 155.589 198.589 157.564 198.589 160H199.411C199.411 158.018 201.018 156.411 203 156.411V155.589Z" fill="#EAEAEA"/>
<path d="M245 146C245 143.791 246.791 142 249 142H267C269.209 142 271 143.791 271 146V146C271 148.209 269.209 150 267 150H249C246.791 150 245 148.209 245 146V146Z" fill="#EAEAEA"/>
<path d="M249 142.411H267V141.589H249V142.411ZM267 149.589H249V150.411H267V149.589ZM249 149.589C247.018 149.589 245.411 147.982 245.411 146H244.589C244.589 148.436 246.564 150.411 249 150.411V149.589ZM270.589 146C270.589 147.982 268.982 149.589 267 149.589V150.411C269.436 150.411 271.411 148.436 271.411 146H270.589ZM267 142.411C268.982 142.411 270.589 144.018 270.589 146H271.411C271.411 143.564 269.436 141.589 267 141.589V142.411ZM249 141.589C246.564 141.589 244.589 143.564 244.589 146H245.411C245.411 144.018 247.018 142.411 249 142.411V141.589Z" fill="#EAEAEA"/>
</svg>
