<svg width="294" height="82" viewBox="0 0 294 82" fill="none" xmlns="http://www.w3.org/2000/svg">
<path d="M90.8863 1.48001C73.4763 -0.399985 55.7263 -0.189985 38.1763 0.480015C17.0263 1.28001 1.52627 18.05 0.0762657 39.86C-1.16373 58.41 12.8563 77 31.9763 80.45C34.4363 80.89 37.5763 81.2 40.8763 81.4H88.1863C107.346 79.38 122.746 63.5 124.196 43.65C125.666 23.47 111.126 3.67001 90.8863 1.48001ZM78.8763 61.55C73.1963 61.65 67.5063 61.57 61.8263 61.57C56.3263 61.57 50.8363 61.66 45.3363 61.55C33.8063 61.33 25.2763 52.95 24.8263 41.54C24.3963 30.55 32.8863 20.91 44.2963 20.45C56.2163 19.97 68.1863 19.96 80.1063 20.42C91.3363 20.85 99.8663 30.59 99.5563 41.61C99.2463 52.63 90.2663 61.35 78.8763 61.55Z" fill="white"/>
<path d="M250.33 81.5193C238.27 81.5193 226.57 81.6293 214.87 81.4893C202.2 81.3393 189.31 82.3793 176.92 80.3893C155.3 76.8993 142.76 58.6593 144.45 36.1093C145.86 17.3293 163.08 0.789335 183.03 0.279335C204.61 -0.280665 226.22 0.169341 247.81 0.199341C248.11 0.199341 248.41 0.499338 249.35 1.00934C244.91 6.94934 240.71 12.9393 236.05 18.5393C235.02 19.7793 232.36 20.0793 230.44 20.0993C216.8 20.2293 203.16 20.0093 189.52 20.2193C179.13 20.3793 170.26 28.0493 169.11 37.3193C167.71 48.6093 173.63 57.9293 184.2 60.7693C186.35 61.3493 188.68 61.4193 190.93 61.4293C208.55 61.4793 226.17 61.4593 243.78 61.4493C245.83 61.4493 247.87 61.4493 250.31 61.4493C250.33 68.2893 250.33 74.5993 250.33 81.5193Z" fill="white"/>
<path d="M293.33 81C285.607 81 278.143 81 270.33 81C270.33 54.005 270.33 27.3569 270.33 0C277.893 0 285.347 0 293.33 0C293.33 26.8291 293.33 53.6732 293.33 81Z" fill="white"/>
</svg>
