<svg width="291" height="82" viewBox="0 0 291 82" fill="none" xmlns="http://www.w3.org/2000/svg">
<path d="M90.8863 1.48001C73.4763 -0.399985 55.7263 -0.189985 38.1763 0.480015C17.0263 1.28001 1.52627 18.05 0.0762657 39.86C-1.16373 58.41 12.8563 77 31.9763 80.45C34.4363 80.89 37.5763 81.2 40.8763 81.4H88.1863C107.346 79.38 122.746 63.5 124.196 43.65C125.666 23.47 111.126 3.67001 90.8863 1.48001ZM78.8763 61.55C73.1963 61.65 67.5063 61.57 61.8263 61.57C56.3263 61.57 50.8363 61.66 45.3363 61.55C33.8063 61.33 25.2763 52.95 24.8263 41.54C24.3963 30.55 32.8863 20.91 44.2963 20.45C56.2163 19.97 68.1863 19.96 80.1063 20.42C91.3363 20.85 99.8663 30.59 99.5563 41.61C99.2463 52.63 90.2663 61.35 78.8763 61.55Z" fill="#00162B"/>
<path d="M246.426 81.65C234.366 81.65 222.666 81.76 210.966 81.62C198.296 81.47 185.406 82.51 173.016 80.52C151.396 77.03 138.856 58.79 140.546 36.24C141.956 17.46 159.176 0.920011 179.126 0.410011C200.706 -0.149989 222.316 0.300017 243.906 0.330017C244.206 0.330017 244.506 0.630015 245.446 1.14001C241.006 7.08001 236.806 13.07 232.146 18.67C231.116 19.91 228.456 20.21 226.536 20.23C212.896 20.36 199.256 20.14 185.616 20.35C175.226 20.51 166.356 28.18 165.206 37.45C163.806 48.74 169.726 58.06 180.296 60.9C182.446 61.48 184.776 61.55 187.026 61.56C204.646 61.61 222.266 61.59 239.876 61.58C241.926 61.58 243.966 61.58 246.406 61.58C246.426 68.42 246.426 74.73 246.426 81.65Z" fill="#00162B"/>
<path d="M290.166 81.27C282.446 81.27 274.986 81.27 267.176 81.27C267.176 63.37 267.176 45.7 267.176 27.56C274.736 27.56 282.186 27.56 290.166 27.56C290.166 45.35 290.166 63.15 290.166 81.27Z" fill="#00162B"/>
<path d="M290.266 0.730011C290.266 7.06001 290.266 13.21 290.266 19.83C282.656 19.83 275.066 19.83 267.146 19.83C267.146 13.52 267.146 7.36001 267.146 0.730011C274.716 0.730011 282.296 0.730011 290.266 0.730011Z" fill="#00162B"/>
</svg>
