<svg width="350" height="350" viewBox="0 0 350 350" fill="none" xmlns="http://www.w3.org/2000/svg">
<rect width="350" height="350" rx="70" fill="#DB0A40"/>
<path d="M118.886 135.48C101.476 133.6 83.7263 133.81 66.1763 134.48C45.0263 135.28 29.5263 152.05 28.0763 173.86C26.8363 192.41 40.8563 211 59.9763 214.45C62.4363 214.89 65.5763 215.2 68.8763 215.4H116.186C135.346 213.38 150.746 197.5 152.196 177.65C153.666 157.47 139.126 137.67 118.886 135.48ZM106.876 195.55C101.196 195.65 95.5063 195.57 89.8263 195.57C84.3263 195.57 78.8363 195.66 73.3363 195.55C61.8063 195.33 53.2763 186.95 52.8263 175.54C52.3963 164.55 60.8863 154.91 72.2963 154.45C84.2163 153.97 96.1863 153.96 108.106 154.42C119.336 154.85 127.866 164.59 127.556 175.61C127.246 186.63 118.266 195.35 106.876 195.55Z" fill="white"/>
<path d="M278.33 215.519C266.27 215.519 254.57 215.629 242.87 215.489C230.2 215.339 217.31 216.379 204.92 214.389C183.3 210.899 170.76 192.659 172.45 170.109C173.86 151.329 191.08 134.789 211.03 134.279C232.61 133.719 254.22 134.169 275.81 134.199C276.11 134.199 276.41 134.499 277.35 135.009C272.91 140.949 268.71 146.939 264.05 152.539C263.02 153.779 260.36 154.079 258.44 154.099C244.8 154.229 231.16 154.009 217.52 154.219C207.13 154.379 198.26 162.049 197.11 171.319C195.71 182.609 201.63 191.929 212.2 194.769C214.35 195.349 216.68 195.419 218.93 195.429C236.55 195.479 254.17 195.459 271.78 195.449C273.83 195.449 275.87 195.449 278.31 195.449C278.33 202.289 278.33 208.599 278.33 215.519Z" fill="white"/>
<path d="M321.33 215C313.607 215 306.143 215 298.33 215C298.33 188.005 298.33 161.357 298.33 134C305.893 134 313.347 134 321.33 134C321.33 160.829 321.33 187.673 321.33 215Z" fill="white"/>
</svg>
