<svg width="294" height="82" viewBox="0 0 294 82" fill="none" xmlns="http://www.w3.org/2000/svg">
<path d="M90.8863 1.73905C73.4763 -0.140952 55.7263 0.0690479 38.1763 0.739048C17.0263 1.53905 1.52627 18.3091 0.0762657 40.1191C-1.16373 58.6691 12.8563 77.259 31.9763 80.709C34.4363 81.149 37.5763 81.459 40.8763 81.659H88.1863C107.346 79.639 122.746 63.7591 124.196 43.9091C125.666 23.7291 111.126 3.92905 90.8863 1.73905ZM78.8763 61.8091C73.1963 61.9091 67.5063 61.829 61.8263 61.829C56.3263 61.829 50.8363 61.9191 45.3363 61.8091C33.8063 61.5891 25.2763 53.2091 24.8263 41.7991C24.3963 30.8091 32.8863 21.169 44.2963 20.709C56.2163 20.229 68.1863 20.2191 80.1063 20.6791C91.3363 21.1091 99.8663 30.8491 99.5563 41.8691C99.2463 52.8891 90.2663 61.6091 78.8763 61.8091Z" fill="#00162B"/>
<path d="M250.33 81.7784C238.27 81.7784 226.57 81.8884 214.87 81.7484C202.2 81.5984 189.31 82.6384 176.92 80.6484C155.3 77.1584 142.76 58.9184 144.45 36.3684C145.86 17.5884 163.08 1.04837 183.03 0.538368C204.61 -0.0216317 226.22 0.428374 247.81 0.458374C248.11 0.458374 248.41 0.758372 249.35 1.26837C244.91 7.20837 240.71 13.1984 236.05 18.7984C235.02 20.0384 232.36 20.3384 230.44 20.3584C216.8 20.4884 203.16 20.2684 189.52 20.4784C179.13 20.6384 170.26 28.3084 169.11 37.5784C167.71 48.8684 173.63 58.1884 184.2 61.0284C186.35 61.6084 188.68 61.6784 190.93 61.6884C208.55 61.7384 226.17 61.7184 243.78 61.7084C245.83 61.7084 247.87 61.7084 250.31 61.7084C250.33 68.5484 250.33 74.8584 250.33 81.7784Z" fill="#00162B"/>
<path d="M293.33 81.259C285.607 81.259 278.143 81.259 270.33 81.259C270.33 54.2641 270.33 27.6159 270.33 0.259033C277.893 0.259033 285.347 0.259033 293.33 0.259033C293.33 27.0881 293.33 53.9323 293.33 81.259Z" fill="#00162B"/>
</svg>
