<?xml version="1.0" standalone="no"?>
<!DOCTYPE svg PUBLIC "-//W3C//DTD SVG 20010904//EN"
 "http://www.w3.org/TR/2001/REC-SVG-20010904/DTD/svg10.dtd">
<svg version="1.0" xmlns="http://www.w3.org/2000/svg"
 width="700.000000pt" height="700.000000pt" viewBox="0 0 700.000000 700.000000"
 preserveAspectRatio="xMidYMid meet">
<metadata>
Created by potrace 1.14, written by Peter Selinger 2001-2017
</metadata>
<g transform="translate(0.000000,700.000000) scale(0.100000,-0.100000)"
fill="#000000" stroke="none">
<path d="M3328 5445 c-1 -2 -158 -6 -348 -10 -462 -8 -717 -18 -775 -29 -11
-2 -42 -7 -70 -10 -284 -38 -647 -200 -875 -393 -75 -63 -222 -215 -270 -278
-25 -33 -47 -62 -50 -65 -14 -13 -112 -174 -153 -250 -89 -169 -192 -480 -212
-645 -11 -85 -16 -129 -20 -165 -5 -43 -5 -284 -1 -325 19 -158 62 -336 116
-475 145 -372 409 -696 748 -921 164 -109 430 -219 617 -255 22 -4 45 -8 50
-9 12 -3 102 -14 165 -21 25 -3 63 -7 85 -10 22 -3 575 -7 1230 -8 900 -2
1207 1 1260 10 39 7 86 15 105 18 62 11 209 56 288 87 257 102 467 241 667
443 164 165 273 318 374 527 45 94 122 304 135 369 37 188 45 235 51 293 16
168 0 418 -39 598 -10 44 -56 203 -65 224 -5 11 -19 47 -32 80 -30 79 -132
275 -181 347 -69 103 -193 252 -270 324 -303 287 -631 438 -1038 479 -36 4
-76 8 -90 10 -80 9 -229 20 -410 30 -69 4 -143 8 -165 10 -22 2 -211 7 -420
10 -209 4 -385 8 -392 10 -6 2 -13 2 -15 0z m917 -969 c88 -3 171 -8 185 -11
14 -3 41 -7 60 -10 166 -27 346 -121 482 -251 200 -192 309 -453 302 -725 -3
-145 -14 -205 -55 -317 -49 -134 -118 -242 -223 -347 -86 -87 -133 -122 -236
-178 -55 -29 -239 -101 -248 -97 -2 2 -67 -8 -117 -17 -16 -3 -410 -6 -875 -7
-906 -2 -960 1 -1115 49 -291 90 -516 306 -618 592 -112 313 -62 667 132 926
108 145 220 229 432 328 26 12 181 48 230 53 26 3 147 8 270 12 123 3 225 7
226 8 5 5 1018 -2 1168 -8z"/>
</g>
</svg>
